HIERARCHY
ROOT hip
{
  OFFSET 0.00112043 5.09927 -9.65472
  CHANNELS 6 Xposition Yposition Zposition Zrotation Xrotation Yrotation
  JOINT abdomen
  {
    OFFSET 0 -1.186 -1.5018
    CHANNELS 3 Zrotation Xrotation Yrotation
    JOINT abdomen2
    {
      OFFSET 0 9.964 0.2134
      CHANNELS 3 Zrotation Xrotation Yrotation
      JOINT chest
      {
        OFFSET 0 13.134 -3.2573
        CHANNELS 3 Zrotation Xrotation Yrotation
        JOINT neck
        {
          OFFSET 0 20.686 -1.6905
          CHANNELS 3 Zrotation Xrotation Yrotation
          JOINT head
          {
            OFFSET 0 7.238 -0.1237
            CHANNELS 3 Zrotation Xrotation Yrotation
            End Site
            {
              OFFSET 0 0 0
            }
          }
        }
        JOINT lCollar
        {
          OFFSET 1.7069 20.075 5.0056
          CHANNELS 3 Zrotation Xrotation Yrotation
          JOINT lShldr
          {
            OFFSET 13.6458 -0.047 -4.849
            CHANNELS 3 Zrotation Xrotation Yrotation
            JOINT lForeArm
            {
              OFFSET 28.3255 -0.9759 2.2888
              CHANNELS 3 Zrotation Xrotation Yrotation
              JOINT lHand
              {
                OFFSET 22.1583 -0.53 10.8316
                CHANNELS 3 Zrotation Xrotation Yrotation
                JOINT lThumb1
                {
                  OFFSET 0.786 0.112 2.5817
                  CHANNELS 3 Zrotation Xrotation Yrotation
                  JOINT lThumb2
                  {
                    OFFSET 0.3601 -0.878 4.2331
                    CHANNELS 3 Zrotation Xrotation Yrotation
                    JOINT lThumb2_End
                    {
                      OFFSET 1.8127 -1.216 2.2227
                      CHANNELS 3 Zrotation Xrotation Yrotation
                      End Site
                      {
                        OFFSET 0.0181 -0.0122 0.0222
                      }
                    }
                  }
                }
                JOINT lCarpal1
                {
                  OFFSET 0.9571 1.114 1.7695
                  CHANNELS 3 Zrotation Xrotation Yrotation
                  JOINT lIndex1
                  {
                    OFFSET 4.1246 0.487 4.1451
                    CHANNELS 3 Zrotation Xrotation Yrotation
                    JOINT lIndex2
                    {
                      OFFSET 3.4052 -1.454 2.7682
                      CHANNELS 3 Zrotation Xrotation Yrotation
                      JOINT lIndex2_End
                      {
                        OFFSET 1.4531 -1.795 1.2713
                        CHANNELS 3 Zrotation Xrotation Yrotation
                        End Site
                        {
                          OFFSET 0.0145 -0.0179 0.0127
                        }
                      }
                    }
                  }
                  JOINT lMid1
                  {
                    OFFSET 5.6954 0.21 2.1184
                    CHANNELS 3 Zrotation Xrotation Yrotation
                    JOINT lMid2
                    {
                      OFFSET 3.9766 -1.54 2.3863
                      CHANNELS 3 Zrotation Xrotation Yrotation
                      JOINT lMid2_End
                      {
                        OFFSET 1.4042 -1.926 1.125
                        CHANNELS 3 Zrotation Xrotation Yrotation
                        End Site
                        {
                          OFFSET 0.014 -0.0193 0.0113
                        }
                      }
                    }
                  }
                }
                JOINT lCarpal2
                {
                  OFFSET 2.0956 0.66 -0.3894
                  CHANNELS 3 Zrotation Xrotation Yrotation
                  JOINT lRing1
                  {
                    OFFSET 5.0395 -0.09 2.4971
                    CHANNELS 3 Zrotation Xrotation Yrotation
                    JOINT lRing2
                    {
                      OFFSET 3.7921 -1.552 1.4806
                      CHANNELS 3 Zrotation Xrotation Yrotation
                      JOINT lRing2_End
                      {
                        OFFSET 1.4655 -1.808 0.9609
                        CHANNELS 3 Zrotation Xrotation Yrotation
                        End Site
                        {
                          OFFSET 0.0147 -0.0181 0.0096
                        }
                      }
                    }
                  }
                  JOINT lPinky1
                  {
                    OFFSET 4.9141 -1.269 0.3591
                    CHANNELS 3 Zrotation Xrotation Yrotation
                    JOINT lPinky2
                    {
                      OFFSET 3.1477 -1.685 0.8462
                      CHANNELS 3 Zrotation Xrotation Yrotation
                      JOINT lPinky2_End
                      {
                        OFFSET 0.8055 -1.585 0.7955
                        CHANNELS 3 Zrotation Xrotation Yrotation
                        End Site
                        {
                          OFFSET 0.0081 -0.0158 0.008
                        }
                      }
                    }
                  }
                }
              }
            }
          }
        }
        JOINT rCollar
        {
          OFFSET -1.7069 20.075 5.0056
          CHANNELS 3 Zrotation Xrotation Yrotation
          JOINT rShldr
          {
            OFFSET -13.6458 -0.047 -4.849
            CHANNELS 3 Zrotation Xrotation Yrotation
            JOINT rForeArm
            {
              OFFSET -28.3255 -0.9759 2.2888
              CHANNELS 3 Zrotation Xrotation Yrotation
              JOINT rHand
              {
                OFFSET -22.1583 -0.53 10.8316
                CHANNELS 3 Zrotation Xrotation Yrotation
                JOINT rThumb1
                {
                  OFFSET -0.786 0.112 2.5817
                  CHANNELS 3 Zrotation Xrotation Yrotation
                  JOINT rThumb2
                  {
                    OFFSET -0.3601 -0.878 4.2331
                    CHANNELS 3 Zrotation Xrotation Yrotation
                    JOINT rThumb2_End
                    {
                      OFFSET -1.8127 -1.216 2.2227
                      CHANNELS 3 Zrotation Xrotation Yrotation
                      End Site
                      {
                        OFFSET -0.0181 -0.0122 0.0222
                      }
                    }
                  }
                }
                JOINT rCarpal1
                {
                  OFFSET -0.9571 1.114 1.7695
                  CHANNELS 3 Zrotation Xrotation Yrotation
                  JOINT rIndex1
                  {
                    OFFSET -4.1246 0.487 4.1451
                    CHANNELS 3 Zrotation Xrotation Yrotation
                    JOINT rIndex2
                    {
                      OFFSET -3.4052 -1.454 2.7682
                      CHANNELS 3 Zrotation Xrotation Yrotation
                      JOINT rIndex2_End
                      {
                        OFFSET -1.4531 -1.795 1.2713
                        CHANNELS 3 Zrotation Xrotation Yrotation
                        End Site
                        {
                          OFFSET -0.0145 -0.018 0.0127
                        }
                      }
                    }
                  }
                  JOINT rMid1
                  {
                    OFFSET -5.6954 0.21 2.1184
                    CHANNELS 3 Zrotation Xrotation Yrotation
                    JOINT rMid2
                    {
                      OFFSET -3.9766 -1.54 2.3863
                      CHANNELS 3 Zrotation Xrotation Yrotation
                      JOINT rMid2_End
                      {
                        OFFSET -1.4042 -1.926 1.125
                        CHANNELS 3 Zrotation Xrotation Yrotation
                        End Site
                        {
                          OFFSET -0.014 -0.0193 0.0113
                        }
                      }
                    }
                  }
                }
                JOINT rCarpal2
                {
                  OFFSET -2.0956 0.66 -0.3894
                  CHANNELS 3 Zrotation Xrotation Yrotation
                  JOINT rRing1
                  {
                    OFFSET -5.0395 -0.09 2.4971
                    CHANNELS 3 Zrotation Xrotation Yrotation
                    JOINT rRing2
                    {
                      OFFSET -3.7921 -1.552 1.4806
                      CHANNELS 3 Zrotation Xrotation Yrotation
                      JOINT rRing2_End
                      {
                        OFFSET -1.4655 -1.808 0.9609
                        CHANNELS 3 Zrotation Xrotation Yrotation
                        End Site
                        {
                          OFFSET -0.0147 -0.0181 0.0096
                        }
                      }
                    }
                  }
                  JOINT rPinky1
                  {
                    OFFSET -4.9141 -1.269 0.3592
                    CHANNELS 3 Zrotation Xrotation Yrotation
                    JOINT rPinky2
                    {
                      OFFSET -3.1477 -1.685 0.8462
                      CHANNELS 3 Zrotation Xrotation Yrotation
                      JOINT rPinky2_End
                      {
                        OFFSET -0.8055 -1.585 0.7955
                        CHANNELS 3 Zrotation Xrotation Yrotation
                        End Site
                        {
                          OFFSET -0.0081 -0.0158 0.008
                        }
                      }
                    }
                  }
                }
              }
            }
          }
        }
      }
    }
  }
  JOINT lThigh
  {
    OFFSET 8.367 -8.2066 0.5982
    CHANNELS 3 Zrotation Xrotation Yrotation
    JOINT lShin
    {
      OFFSET 2.1923 -43.463 -0.4932
      CHANNELS 3 Zrotation Xrotation Yrotation
      JOINT lFoot
      {
        OFFSET 0.7333 -45.8593 -2.6451
        CHANNELS 3 Zrotation Xrotation Yrotation
        End Site
        {
          OFFSET 2.6618 -4.2699 12.3931
        }
      }
    }
  }
  JOINT rThigh
  {
    OFFSET -8.367 -8.2066 0.5982
    CHANNELS 3 Zrotation Xrotation Yrotation
    JOINT rShin
    {
      OFFSET -2.1923 -43.463 -0.4931
      CHANNELS 3 Zrotation Xrotation Yrotation
      JOINT rFoot
      {
        OFFSET -0.7333 -45.8593 -2.6451
        CHANNELS 3 Zrotation Xrotation Yrotation
        End Site
        {
          OFFSET -2.6618 -4.2699 12.3931
        }
      }
    }
  }
}
MOTION
Frames:	4
Frame Time:	0.0333333
1.00393 89.0446 30.9615 0 21.4492 -0 0.345334 1.19029 -0.486164 0.700986 2.3776 -0.979814 0.700986 2.3776 -0.979814 -2.91776e-005 -1.33692 -2.4553e-005 -3.88227e-008 -10.147 -6.04992e-007 -23.9789 31.0834 -6.22371 -79.9388 -53.7549 -49.1856 -86.8894 3.60798 5.97425 141.329 22.892 -87.7144 -2.31835e-007 3.41739e-007 1.05416e-007 2.31835e-007 -3.41739e-007 -1.05416e-007 -2.31835e-007 3.41739e-007 1.05416e-007 9.54166e-015 6.36111e-015 -0 -2.31835e-007 3.41739e-007 1.05416e-007 2.31835e-007 -3.41739e-007 -1.05416e-007 -2.31835e-007 3.41739e-007 1.05416e-007 -2.31835e-007 3.41739e-007 1.05416e-007 2.31835e-007 -3.41739e-007 -1.05416e-007 -2.31835e-007 3.41739e-007 1.05416e-007 9.54166e-015 6.36111e-015 -0 -2.31835e-007 3.41739e-007 1.05416e-007 2.31835e-007 -3.41739e-007 -1.05416e-007 -2.31835e-007 3.41739e-007 1.05416e-007 -2.31835e-007 3.41739e-007 1.05416e-007 2.31835e-007 -3.41739e-007 -1.05416e-007 -2.31835e-007 3.41739e-007 1.05416e-007 23.0653 29.2007 6.51993 80.0395 -53.7429 50.1052 84.7272 2.72972 -6.11236 -142.617 23.6831 93.2602 -4.61781e-007 -6.87638e-007 2.02761e-007 -1.15445e-006 -1.7191e-006 5.06904e-007 -4.61781e-007 -6.87638e-007 2.02761e-007 6.36111e-015 3.18055e-015 -3.18055e-015 -4.61781e-007 -6.87638e-007 2.02762e-007 -1.15445e-006 -1.7191e-006 5.06904e-007 -4.61781e-007 -6.87638e-007 2.02762e-007 -4.61781e-007 -6.87638e-007 2.02762e-007 -1.15445e-006 -1.7191e-006 5.06904e-007 -4.61781e-007 -6.87638e-007 2.02762e-007 6.36111e-015 3.18055e-015 -3.18055e-015 -4.61781e-007 -6.87638e-007 2.02762e-007 -1.15445e-006 -1.7191e-006 5.06904e-007 -4.61781e-007 -6.87638e-007 2.02762e-007 -4.61781e-007 -6.87638e-007 2.02762e-007 -1.15445e-006 -1.7191e-006 5.06904e-007 -4.61781e-007 -6.87638e-007 2.02762e-007 21.5007 -45.2544 26.478 -4.15243 28.7409 5.5621 8.67908 9.17589 8.81867 -22.5717 -44.6095 -25.5224 4.09652 27.1826 -5.46779 -6.96935 11.0145 -9.80111 
1.00381 89.0115 30.7623 0 21.9001 -0 0.34644 1.05977 -0.484371 0.70201 2.11653 -0.975393 0.70201 2.11652 -0.975393 8.04036e-006 -2.02079 -3.14034e-005 1.4667e-007 -11.1959 2.46522e-007 -23.9789 31.0834 -6.22371 -79.9388 -53.7549 -49.1856 -86.8894 3.60798 5.97425 141.418 23.1516 -87.6721 -6.36111e-015 -1.59028e-015 -0 2.31824e-007 -3.41676e-007 -1.05586e-007 -6.36111e-015 1.59028e-015 6.36111e-015 -6.36111e-015 1.59028e-015 -0 -4.41391e-031 7.95139e-015 3.18055e-015 2.31824e-007 -3.41676e-007 -1.05586e-007 -3.18055e-015 3.18055e-015 -0 -4.41391e-031 7.95139e-015 3.18055e-015 2.31824e-007 -3.41676e-007 -1.05586e-007 -3.18055e-015 3.18055e-015 -0 -6.36111e-015 1.59028e-015 -0 -4.41391e-031 7.95139e-015 3.18055e-015 2.31824e-007 -3.41676e-007 -1.05586e-007 -3.18055e-015 3.18055e-015 -0 -4.41391e-031 7.95139e-015 3.18055e-015 2.31824e-007 -3.41676e-007 -1.05586e-007 -3.18055e-015 3.18055e-015 -0 23.0653 29.2007 6.51992 80.0395 -53.743 50.1052 84.7272 2.72972 -6.11236 -142.734 23.9331 93.2349 -6.36111e-015 4.77083e-015 1.27222e-014 2.30884e-007 3.43766e-007 -1.01522e-007 8.82781e-032 1.59028e-015 -3.18055e-015 -0 0 3.18055e-015 -6.36111e-015 -1.43125e-014 9.54166e-015 2.30884e-007 3.43766e-007 -1.01522e-007 -3.18055e-015 -3.18055e-015 -3.18055e-015 -6.36111e-015 -1.43125e-014 9.54166e-015 2.30884e-007 3.43766e-007 -1.01522e-007 -3.18055e-015 -3.18055e-015 -3.18055e-015 -0 0 3.18055e-015 -6.36111e-015 -1.43125e-014 9.54166e-015 2.30884e-007 3.43766e-007 -1.01522e-007 -3.18055e-015 -3.18055e-015 -3.18055e-015 -6.36111e-015 -1.43125e-014 9.54166e-015 2.30884e-007 3.43766e-007 -1.01522e-007 -3.18055e-015 -3.18055e-015 -3.18055e-015 21.4593 -45.8874 26.0354 -4.14607 28.7164 5.57105 8.52489 9.45075 9.35467 -22.5184 -45.2391 -25.0092 4.08975 27.1571 -5.47726 -6.7716 11.2851 -10.415 
1.00401 88.9759 30.5633 0 22.351 -0 0.347551 0.929254 -0.482577 0.703056 1.85553 -0.970973 0.703056 1.85552 -0.970973 -4.76905e-005 -2.70516 1.29402e-005 2.74212e-007 -12.2448 6.49696e-007 -23.9789 31.0833 -6.2237 -79.9387 -53.7549 -49.1856 -86.8894 3.60798 5.97425 141.507 23.4113 -87.6301 4.63626e-007 -6.83226e-007 -2.1151e-007 9.27253e-007 -1.36645e-006 -4.2302e-007 4.63626e-007 -6.83226e-007 -2.1151e-007 -9.54166e-015 0 -0 4.63626e-007 -6.83226e-007 -2.1151e-007 9.27253e-007 -1.36645e-006 -4.2302e-007 4.63626e-007 -6.83226e-007 -2.1151e-007 4.63626e-007 -6.83226e-007 -2.1151e-007 9.27253e-007 -1.36645e-006 -4.2302e-007 4.63626e-007 -6.83226e-007 -2.1151e-007 -9.54166e-015 0 -0 4.63626e-007 -6.83226e-007 -2.1151e-007 9.27253e-007 -1.36645e-006 -4.2302e-007 4.63626e-007 -6.83226e-007 -2.1151e-007 4.63626e-007 -6.83226e-007 -2.1151e-007 9.27253e-007 -1.36645e-006 -4.2302e-007 4.63626e-007 -6.83226e-007 -2.1151e-007 23.0653 29.2006 6.52002 80.0394 -53.743 50.1052 84.7272 2.72972 -6.11236 -142.852 24.1831 93.21 3.18055e-015 -1.11319e-014 -0 -6.36111e-015 -4.77083e-015 6.36111e-015 6.92632e-007 1.03114e-006 -3.04989e-007 6.36111e-015 -4.77083e-015 -3.18055e-015 5.29669e-030 -1.90833e-014 1.59028e-014 3.18055e-015 -9.54166e-015 -0 6.92632e-007 1.03114e-006 -3.04989e-007 5.29669e-030 -1.90833e-014 1.59028e-014 3.18055e-015 -9.54166e-015 -0 6.92632e-007 1.03114e-006 -3.04989e-007 6.36111e-015 -4.77083e-015 -3.18055e-015 5.29669e-030 -1.90833e-014 1.59028e-014 3.18055e-015 -9.54166e-015 -0 6.92632e-007 1.03114e-006 -3.04989e-007 5.29669e-030 -1.90833e-014 1.59028e-014 3.18055e-015 -9.54166e-015 -0 6.92632e-007 1.03114e-006 -3.04989e-007 21.4154 -46.5239 25.5903 -4.14182 28.7013 5.5814 8.36802 9.71963 9.89206 -22.4619 -45.8718 -24.493 4.08511 27.1408 -5.48783 -6.57034 11.5494 -11.0307 
1.00429 88.9393 30.3642 0 22.8019 -0 0.348647 0.798774 -0.480758 0.704088 1.59452 -0.966506 0.704088 1.59453 -0.966507 -3.31275e-005 -3.38882 -1.24072e-006 -2.41681e-007 -13.2936 -2.36606e-007 -23.9789 31.0833 -6.22371 -79.9388 -53.7549 -49.1856 -86.8894 3.60798 5.97426 141.597 23.671 -87.5885 3.18055e-015 4.77083e-015 3.18055e-015 1.1016e-006 -1.23847e-007 1.74394e-006 2.31802e-007 -3.4155e-007 -1.05924e-007 3.18055e-015 -3.18055e-015 3.18055e-015 -6.36111e-015 2.06736e-014 1.27222e-014 1.1016e-006 -1.23847e-007 1.74394e-006 2.31802e-007 -3.4155e-007 -1.05924e-007 -6.36111e-015 2.06736e-014 1.27222e-014 1.1016e-006 -1.23847e-007 1.74394e-006 2.31802e-007 -3.4155e-007 -1.05924e-007 3.18055e-015 -3.18055e-015 3.18055e-015 -6.36111e-015 2.06736e-014 1.27222e-014 1.1016e-006 -1.23847e-007 1.74394e-006 2.31802e-007 -3.4155e-007 -1.05924e-007 -6.36111e-015 2.06736e-014 1.27222e-014 1.1016e-006 -1.23847e-007 1.74394e-006 2.31802e-007 -3.4155e-007 -1.05924e-007 23.0653 29.2007 6.51998 80.0395 -53.7429 50.1052 84.7272 2.72974 -6.11235 -142.971 24.4332 93.1857 9.54166e-015 0 3.18055e-015 2.64834e-031 4.77083e-015 -3.18055e-015 2.3087e-007 3.43658e-007 -1.01804e-007 6.36111e-015 -1.59028e-015 3.18055e-015 9.54166e-015 -1.59028e-014 6.36111e-015 -1.76556e-031 -1.59028e-015 -6.36111e-015 2.3087e-007 3.43658e-007 -1.01804e-007 9.54166e-015 -1.59028e-014 6.36111e-015 -1.76556e-031 -1.59028e-015 -6.36111e-015 2.3087e-007 3.43658e-007 -1.01804e-007 6.36111e-015 -1.59028e-015 3.18055e-015 9.54166e-015 -1.59028e-014 6.36111e-015 -1.76556e-031 -1.59028e-015 -6.36111e-015 2.3087e-007 3.43658e-007 -1.01804e-007 9.54166e-015 -1.59028e-014 6.36111e-015 -1.76556e-031 -1.59028e-015 -6.36111e-015 2.3087e-007 3.43658e-007 -1.01804e-007 21.3657 -47.161 25.1407 -4.13822 28.6891 5.59199 8.20824 9.98577 10.4307 -22.3988 -46.5049 -23.9715 4.08115 27.1272 -5.49854 -6.36565 11.8103 -11.6479 
